<svg width="74" height="75" viewBox="0 0 74 75" fill="none" xmlns="http://www.w3.org/2000/svg">
<g clip-path="url(#clip0_3_6)">
<path d="M36.9291 0.341366C26.7747 0.341366 18.4665 10.6804 18.4665 23.4195C18.4665 36.1587 26.7747 46.4977 36.9291 46.4977C47.0835 46.4977 55.3916 36.1587 55.3916 23.4195C55.3916 10.6804 47.0835 0.341366 36.9291 0.341366ZM17.6357 46.4977C7.85059 46.9593 0.00401688 54.9905 0.00401688 64.9602V74.1915H73.8541V64.9602C73.8541 54.9905 66.0999 46.9593 56.2224 46.4977C51.2375 52.1288 44.4064 55.729 36.9291 55.729C29.4518 55.729 22.6206 52.1288 17.6357 46.4977Z" fill="#855B98"/>
</g>
<defs>
<clipPath id="clip0_3_6">
<rect width="73.8501" height="73.8501" fill="white" transform="translate(0.00401688 0.341366)"/>
</clipPath>
</defs>
</svg>
