<svg width="74" height="74" viewBox="0 0 74 74" fill="none" xmlns="http://www.w3.org/2000/svg">
<path d="M32.0195 0.0914844C14.3631 0.0914844 0 14.4545 0 32.111C0 49.7675 14.3631 64.1306 32.0195 64.1306C37.4171 64.1306 42.7232 62.8498 47.206 60.3797C47.565 60.8118 47.9631 61.2099 48.3953 61.569L57.5437 70.7175C58.3884 71.668 59.4185 72.4358 60.5708 72.9738C61.723 73.5118 62.973 73.8087 64.2441 73.8461C65.5152 73.8835 66.7806 73.6607 67.9625 73.1914C69.1443 72.7221 70.2178 72.0162 71.117 71.117C72.0162 70.2178 72.7221 69.1443 73.1914 67.9625C73.6607 66.7806 73.8835 65.5152 73.8461 64.2441C73.8087 62.973 73.5118 61.723 72.9738 60.5708C72.4358 59.4186 71.668 58.3884 70.7175 57.5437L61.569 48.3953C61.1234 47.9495 60.6329 47.5509 60.1053 47.206C62.5753 42.7232 64.1306 37.5086 64.1306 32.0195C64.1306 14.3631 49.7675 0 32.111 0L32.0195 0.0914844ZM32.0195 9.23993C44.7359 9.23993 54.8907 19.3947 54.8907 32.111C54.8907 38.149 52.695 43.7296 48.8527 47.8464C48.7612 47.9378 48.6697 48.0293 48.5782 48.1208C48.1461 48.4799 47.748 48.878 47.3889 49.3101C43.3636 52.9695 37.8746 55.0736 31.9281 55.0736C19.2117 55.0736 9.05696 44.9189 9.05696 32.2025C9.05696 19.4862 19.2117 9.33141 31.9281 9.33141L32.0195 9.23993Z" fill="#C186DB"/>
</svg>
